<svg xmlns="http://www.w3.org/2000/svg" viewBox="0 0 128 108" width="128" height="108">
<g id="desk">
<rect x="24" y="47" width="10" height="1" fill="#eebba8"/>
<rect x="24" y="48" width="14" height="1" fill="#eebba8"/>
<rect x="24" y="49" width="14" height="1" fill="#eebba8"/>
<rect x="24" y="50" width="3" height="1" fill="#eebba8"/>
<rect x="32" y="50" width="10" height="1" fill="#eebba8"/>
<rect x="24" y="51" width="3" height="1" fill="#eebba8"/>
<rect x="32" y="51" width="10" height="1" fill="#eebba8"/>
<rect x="24" y="52" width="3" height="1" fill="#eebba8"/>
<rect x="36" y="52" width="10" height="1" fill="#eebba8"/>
<rect x="24" y="53" width="3" height="1" fill="#eebba8"/>
<rect x="36" y="53" width="10" height="1" fill="#eebba8"/>
<rect x="24" y="54" width="5" height="1" fill="#eebba8"/>
<rect x="40" y="54" width="10" height="1" fill="#eebba8"/>
<rect x="24" y="55" width="7" height="1" fill="#eebba8"/>
<rect x="44" y="55" width="10" height="1" fill="#eebba8"/>
<rect x="24" y="56" width="7" height="1" fill="#eebba8"/>
<rect x="44" y="56" width="10" height="1" fill="#eebba8"/>
<rect x="24" y="57" width="7" height="1" fill="#eebba8"/>
<rect x="48" y="57" width="4" height="1" fill="#eebba8"/>
<rect x="24" y="58" width="8" height="1" fill="#eebba8"/>
<rect x="24" y="59" width="8" height="1" fill="#eebba8"/>
<rect x="24" y="60" width="10" height="1" fill="#eebba8"/>
<rect x="61" y="60" width="5" height="1" fill="#eebba8"/>
<rect x="24" y="61" width="10" height="1" fill="#eebba8"/>
<rect x="61" y="61" width="5" height="1" fill="#eebba8"/>
<rect x="24" y="62" width="10" height="1" fill="#eebba8"/>
<rect x="64" y="62" width="3" height="1" fill="#eebba8"/>
<rect x="24" y="63" width="12" height="1" fill="#eebba8"/>
<rect x="24" y="64" width="12" height="1" fill="#eebba8"/>
<rect x="24" y="65" width="12" height="1" fill="#eebba8"/>
<rect x="76" y="65" width="2" height="1" fill="#eebba8"/>
<rect x="24" y="66" width="16" height="1" fill="#eebba8"/>
<rect x="75" y="66" width="5" height="1" fill="#eebba8"/>
<rect x="24" y="67" width="16" height="1" fill="#eebba8"/>
<rect x="75" y="67" width="5" height="1" fill="#eebba8"/>
<rect x="24" y="68" width="20" height="1" fill="#eebba8"/>
<rect x="78" y="68" width="6" height="1" fill="#eebba8"/>
<rect x="24" y="69" width="22" height="1" fill="#eebba8"/>
<rect x="79" y="69" width="9" height="1" fill="#eebba8"/>
<rect x="24" y="70" width="22" height="1" fill="#eebba8"/>
<rect x="79" y="70" width="9" height="1" fill="#eebba8"/>
<rect x="24" y="71" width="26" height="1" fill="#eebba8"/>
<rect x="76" y="71" width="16" height="1" fill="#eebba8"/>
<rect x="24" y="72" width="26" height="1" fill="#eebba8"/>
<rect x="76" y="72" width="16" height="1" fill="#eebba8"/>
<rect x="24" y="73" width="30" height="1" fill="#eebba8"/>
<rect x="72" y="73" width="24" height="1" fill="#eebba8"/>
<rect x="24" y="74" width="34" height="1" fill="#eebba8"/>
<rect x="68" y="74" width="32" height="1" fill="#eebba8"/>
<rect x="24" y="75" width="34" height="1" fill="#eebba8"/>
<rect x="68" y="75" width="32" height="1" fill="#eebba8"/>
<rect x="24" y="76" width="80" height="1" fill="#eebba8"/>
<rect x="24" y="77" width="80" height="1" fill="#eebba8"/>
<rect x="24" y="78" width="80" height="1" fill="#eebba8"/>
<rect x="24" y="79" width="80" height="1" fill="#eebba8"/>
<rect x="24" y="80" width="80" height="1" fill="#eebba8"/>
<rect x="24" y="81" width="80" height="1" fill="#eebba8"/>
<rect x="24" y="82" width="80" height="1" fill="#eebba8"/>
<rect x="24" y="83" width="80" height="1" fill="#eebba8"/>
<rect x="24" y="84" width="80" height="1" fill="#eebba8"/>
<rect x="24" y="85" width="80" height="1" fill="#eebba8"/>
<rect x="24" y="86" width="80" height="1" fill="#eebba8"/>
<rect x="24" y="87" width="80" height="1" fill="#eebba8"/>
<rect x="24" y="88" width="80" height="1" fill="#eebba8"/>
<rect x="24" y="89" width="80" height="1" fill="#eebba8"/>
<rect x="24" y="90" width="80" height="1" fill="#eebba8"/>
<rect x="24" y="91" width="80" height="1" fill="#eebba8"/>
<rect x="24" y="92" width="80" height="1" fill="#eebba8"/>
<rect x="24" y="93" width="80" height="1" fill="#eebba8"/>
<rect x="24" y="94" width="80" height="1" fill="#eebba8"/>
<rect x="25" y="95" width="78" height="1" fill="#eebba8"/>
</g>
<g id="laptop">
<rect x="56" y="48" width="4" height="1" fill="#9b9b9b"/>
<rect x="81" y="48" width="1" height="1" fill="#9b9b9b"/>
<rect x="82" y="49" width="1" height="1" fill="#9b9b9b"/>
<rect x="82" y="50" width="1" height="1" fill="#9b9b9b"/>
<rect x="82" y="51" width="1" height="1" fill="#9b9b9b"/>
<rect x="29" y="52" width="3" height="1" fill="#9b9b9b"/>
<rect x="82" y="52" width="1" height="1" fill="#9b9b9b"/>
<rect x="27" y="53" width="2" height="1" fill="#666666"/>
<rect x="29" y="53" width="3" height="1" fill="#9b9b9b"/>
<rect x="64" y="53" width="1" height="1" fill="#9b9b9b"/>
<rect x="79" y="53" width="3" height="1" fill="#9b9b9b"/>
<rect x="82" y="53" width="1" height="1" fill="#666666"/>
<rect x="31" y="54" width="5" height="1" fill="#9b9b9b"/>
<rect x="69" y="54" width="1" height="1" fill="#9b9b9b"/>
<rect x="32" y="55" width="8" height="1" fill="#9b9b9b"/>
<rect x="82" y="55" width="1" height="1" fill="#9b9b9b"/>
<rect x="32" y="56" width="8" height="1" fill="#9b9b9b"/>
<rect x="82" y="56" width="1" height="1" fill="#9b9b9b"/>
<rect x="32" y="57" width="12" height="1" fill="#9b9b9b"/>
<rect x="34" y="58" width="14" height="1" fill="#9b9b9b"/>
<rect x="73" y="58" width="1" height="1" fill="#9b9b9b"/>
<rect x="34" y="59" width="14" height="1" fill="#9b9b9b"/>
<rect x="73" y="59" width="1" height="1" fill="#9b9b9b"/>
<rect x="36" y="60" width="5" height="1" fill="#9b9b9b"/>
<rect x="41" y="60" width="1" height="1" fill="#3D5A80"/>
<rect x="42" y="60" width="9" height="1" fill="#9b9b9b"/>
<rect x="36" y="61" width="4" height="1" fill="#9b9b9b"/>
<rect x="40" y="61" width="1" height="1" fill="#3D5A80"/>
<rect x="41" y="61" width="1" height="1" fill="#9b9b9b"/>
<rect x="42" y="61" width="1" height="1" fill="#3D5A80"/>
<rect x="43" y="61" width="3" height="1" fill="#9b9b9b"/>
<rect x="46" y="61" width="1" height="1" fill="#3D5A80"/>
<rect x="47" y="61" width="4" height="1" fill="#9b9b9b"/>
<rect x="36" y="62" width="2" height="1" fill="#9b9b9b"/>
<rect x="38" y="62" width="2" height="1" fill="#3D5A80"/>
<rect x="40" y="62" width="3" height="1" fill="#9b9b9b"/>
<rect x="43" y="62" width="1" height="1" fill="#3D5A80"/>
<rect x="44" y="62" width="1" height="1" fill="#9b9b9b"/>
<rect x="45" y="62" width="1" height="1" fill="#3D5A80"/>
<rect x="46" y="62" width="1" height="1" fill="#9b9b9b"/>
<rect x="47" y="62" width="2" height="1" fill="#3D5A80"/>
<rect x="49" y="62" width="5" height="1" fill="#9b9b9b"/>
<rect x="56" y="62" width="4" height="1" fill="#9b9b9b"/>
<rect x="37" y="63" width="7" height="1" fill="#9b9b9b"/>
<rect x="44" y="63" width="1" height="1" fill="#3D5A80"/>
<rect x="45" y="63" width="9" height="1" fill="#9b9b9b"/>
<rect x="60" y="63" width="4" height="1" fill="#9b9b9b"/>
<rect x="37" y="64" width="17" height="1" fill="#9b9b9b"/>
<rect x="60" y="64" width="4" height="1" fill="#9b9b9b"/>
<rect x="40" y="65" width="16" height="1" fill="#9b9b9b"/>
<rect x="58" y="65" width="2" height="1" fill="#9b9b9b"/>
<rect x="62" y="65" width="4" height="1" fill="#9b9b9b"/>
<rect x="44" y="66" width="12" height="1" fill="#9b9b9b"/>
<rect x="58" y="66" width="2" height="1" fill="#9b9b9b"/>
<rect x="64" y="66" width="4" height="1" fill="#9b9b9b"/>
<rect x="92" y="66" width="1" height="1" fill="#9b9b9b"/>
<rect x="94" y="66" width="1" height="1" fill="#9b9b9b"/>
<rect x="44" y="67" width="12" height="1" fill="#9b9b9b"/>
<rect x="60" y="67" width="2" height="1" fill="#9b9b9b"/>
<rect x="66" y="67" width="2" height="1" fill="#9b9b9b"/>
<rect x="92" y="67" width="1" height="1" fill="#9b9b9b"/>
<rect x="94" y="67" width="1" height="1" fill="#9b9b9b"/>
<rect x="46" y="68" width="12" height="1" fill="#9b9b9b"/>
<rect x="62" y="68" width="2" height="1" fill="#9b9b9b"/>
<rect x="66" y="68" width="9" height="1" fill="#9b9b9b"/>
<rect x="50" y="69" width="8" height="1" fill="#9b9b9b"/>
<rect x="64" y="69" width="2" height="1" fill="#9b9b9b"/>
<rect x="70" y="69" width="6" height="1" fill="#9b9b9b"/>
<rect x="94" y="69" width="1" height="1" fill="#9b9b9b"/>
<rect x="50" y="70" width="8" height="1" fill="#9b9b9b"/>
<rect x="64" y="70" width="2" height="1" fill="#9b9b9b"/>
<rect x="70" y="70" width="6" height="1" fill="#9b9b9b"/>
<rect x="94" y="70" width="1" height="1" fill="#666666"/>
<rect x="54" y="71" width="6" height="1" fill="#9b9b9b"/>
<rect x="61" y="71" width="2" height="1" fill="#9b9b9b"/>
<rect x="66" y="71" width="6" height="1" fill="#9b9b9b"/>
<rect x="54" y="72" width="6" height="1" fill="#9b9b9b"/>
<rect x="61" y="72" width="2" height="1" fill="#9b9b9b"/>
<rect x="66" y="72" width="6" height="1" fill="#9b9b9b"/>
<rect x="58" y="73" width="2" height="1" fill="#9b9b9b"/>
<rect x="62" y="73" width="6" height="1" fill="#9b9b9b"/>
</g>
<g id="body">
<rect x="64" y="40" width="11" height="1" fill="#333333"/>
<rect x="64" y="41" width="11" height="1" fill="#333333"/>
<rect x="61" y="42" width="3" height="1" fill="#333333"/>
<rect x="75" y="42" width="3" height="1" fill="#333333"/>
<rect x="60" y="44" width="1" height="1" fill="#333333"/>
<rect x="78" y="44" width="2" height="1" fill="#333333"/>
<rect x="24" y="45" width="12" height="1" fill="#333333"/>
<rect x="58" y="45" width="2" height="1" fill="#333333"/>
<rect x="79" y="45" width="2" height="1" fill="#333333"/>
<rect x="24" y="46" width="12" height="1" fill="#333333"/>
<rect x="58" y="46" width="2" height="1" fill="#333333"/>
<rect x="79" y="46" width="2" height="1" fill="#333333"/>
<rect x="34" y="47" width="6" height="1" fill="#333333"/>
<rect x="56" y="47" width="2" height="1" fill="#333333"/>
<rect x="81" y="47" width="2" height="1" fill="#333333"/>
<rect x="38" y="48" width="2" height="1" fill="#333333"/>
<rect x="82" y="48" width="1" height="1" fill="#333333"/>
<rect x="38" y="49" width="4" height="1" fill="#333333"/>
<rect x="55" y="49" width="1" height="1" fill="#333333"/>
<rect x="58" y="49" width="2" height="1" fill="#333333"/>
<rect x="83" y="49" width="1" height="1" fill="#333333"/>
<rect x="27" y="50" width="5" height="1" fill="#333333"/>
<rect x="42" y="50" width="4" height="1" fill="#333333"/>
<rect x="55" y="50" width="1" height="1" fill="#333333"/>
<rect x="58" y="50" width="2" height="1" fill="#333333"/>
<rect x="76" y="50" width="2" height="1" fill="#333333"/>
<rect x="83" y="50" width="1" height="1" fill="#333333"/>
<rect x="27" y="51" width="5" height="1" fill="#333333"/>
<rect x="42" y="51" width="4" height="1" fill="#333333"/>
<rect x="55" y="51" width="1" height="1" fill="#333333"/>
<rect x="58" y="51" width="2" height="1" fill="#333333"/>
<rect x="76" y="51" width="2" height="1" fill="#333333"/>
<rect x="83" y="51" width="1" height="1" fill="#333333"/>
<rect x="27" y="52" width="2" height="1" fill="#333333"/>
<rect x="32" y="52" width="4" height="1" fill="#333333"/>
<rect x="46" y="52" width="4" height="1" fill="#333333"/>
<rect x="56" y="52" width="4" height="1" fill="#333333"/>
<rect x="64" y="52" width="2" height="1" fill="#333333"/>
<rect x="76" y="52" width="3" height="1" fill="#333333"/>
<rect x="83" y="52" width="1" height="1" fill="#333333"/>
<rect x="32" y="53" width="4" height="1" fill="#333333"/>
<rect x="46" y="53" width="4" height="1" fill="#333333"/>
<rect x="56" y="53" width="4" height="1" fill="#333333"/>
<rect x="65" y="53" width="1" height="1" fill="#333333"/>
<rect x="76" y="53" width="3" height="1" fill="#333333"/>
<rect x="83" y="53" width="1" height="1" fill="#333333"/>
<rect x="29" y="54" width="2" height="1" fill="#333333"/>
<rect x="36" y="54" width="4" height="1" fill="#333333"/>
<rect x="50" y="54" width="4" height="1" fill="#333333"/>
<rect x="58" y="54" width="2" height="1" fill="#333333"/>
<rect x="62" y="54" width="1" height="1" fill="#333333"/>
<rect x="65" y="54" width="1" height="1" fill="#333333"/>
<rect x="68" y="54" width="1" height="1" fill="#333333"/>
<rect x="78" y="54" width="6" height="1" fill="#333333"/>
<rect x="31" y="55" width="1" height="1" fill="#333333"/>
<rect x="40" y="55" width="4" height="1" fill="#333333"/>
<rect x="54" y="55" width="4" height="1" fill="#333333"/>
<rect x="63" y="55" width="5" height="1" fill="#333333"/>
<rect x="83" y="55" width="1" height="1" fill="#333333"/>
<rect x="31" y="56" width="1" height="1" fill="#333333"/>
<rect x="40" y="56" width="4" height="1" fill="#333333"/>
<rect x="54" y="56" width="4" height="1" fill="#333333"/>
<rect x="63" y="56" width="5" height="1" fill="#333333"/>
<rect x="83" y="56" width="1" height="1" fill="#333333"/>
<rect x="31" y="57" width="1" height="1" fill="#333333"/>
<rect x="44" y="57" width="4" height="1" fill="#333333"/>
<rect x="52" y="57" width="3" height="1" fill="#333333"/>
<rect x="84" y="57" width="2" height="1" fill="#333333"/>
<rect x="32" y="58" width="2" height="1" fill="#333333"/>
<rect x="48" y="58" width="6" height="1" fill="#333333"/>
<rect x="61" y="58" width="5" height="1" fill="#333333"/>
<rect x="72" y="58" width="1" height="1" fill="#333333"/>
<rect x="84" y="58" width="2" height="1" fill="#333333"/>
<rect x="32" y="59" width="2" height="1" fill="#333333"/>
<rect x="48" y="59" width="6" height="1" fill="#333333"/>
<rect x="61" y="59" width="5" height="1" fill="#333333"/>
<rect x="72" y="59" width="1" height="1" fill="#333333"/>
<rect x="84" y="59" width="2" height="1" fill="#333333"/>
<rect x="34" y="60" width="2" height="1" fill="#333333"/>
<rect x="51" y="60" width="10" height="1" fill="#333333"/>
<rect x="66" y="60" width="6" height="1" fill="#333333"/>
<rect x="84" y="60" width="2" height="1" fill="#333333"/>
<rect x="34" y="61" width="2" height="1" fill="#333333"/>
<rect x="51" y="61" width="10" height="1" fill="#333333"/>
<rect x="66" y="61" width="6" height="1" fill="#333333"/>
<rect x="84" y="61" width="2" height="1" fill="#333333"/>
<rect x="34" y="62" width="2" height="1" fill="#333333"/>
<rect x="54" y="62" width="2" height="1" fill="#333333"/>
<rect x="60" y="62" width="4" height="1" fill="#333333"/>
<rect x="68" y="62" width="2" height="1" fill="#333333"/>
<rect x="86" y="62" width="2" height="1" fill="#333333"/>
<rect x="36" y="63" width="1" height="1" fill="#333333"/>
<rect x="54" y="63" width="6" height="1" fill="#333333"/>
<rect x="64" y="63" width="4" height="1" fill="#333333"/>
<rect x="76" y="63" width="3" height="1" fill="#333333"/>
<rect x="86" y="63" width="2" height="1" fill="#333333"/>
<rect x="36" y="64" width="1" height="1" fill="#333333"/>
<rect x="54" y="64" width="6" height="1" fill="#333333"/>
<rect x="64" y="64" width="4" height="1" fill="#333333"/>
<rect x="76" y="64" width="3" height="1" fill="#333333"/>
<rect x="86" y="64" width="2" height="1" fill="#333333"/>
<rect x="36" y="65" width="4" height="1" fill="#333333"/>
<rect x="56" y="65" width="2" height="1" fill="#333333"/>
<rect x="60" y="65" width="2" height="1" fill="#333333"/>
<rect x="66" y="65" width="2" height="1" fill="#333333"/>
<rect x="72" y="65" width="4" height="1" fill="#333333"/>
<rect x="78" y="65" width="3" height="1" fill="#333333"/>
<rect x="86" y="65" width="2" height="1" fill="#333333"/>
<rect x="93" y="65" width="3" height="1" fill="#333333"/>
<rect x="40" y="66" width="4" height="1" fill="#333333"/>
<rect x="56" y="66" width="2" height="1" fill="#333333"/>
<rect x="60" y="66" width="4" height="1" fill="#333333"/>
<rect x="68" y="66" width="7" height="1" fill="#333333"/>
<rect x="80" y="66" width="4" height="1" fill="#333333"/>
<rect x="87" y="66" width="5" height="1" fill="#333333"/>
<rect x="95" y="66" width="1" height="1" fill="#333333"/>
<rect x="40" y="67" width="4" height="1" fill="#333333"/>
<rect x="56" y="67" width="4" height="1" fill="#333333"/>
<rect x="62" y="67" width="4" height="1" fill="#333333"/>
<rect x="68" y="67" width="7" height="1" fill="#333333"/>
<rect x="80" y="67" width="4" height="1" fill="#333333"/>
<rect x="87" y="67" width="5" height="1" fill="#333333"/>
<rect x="95" y="67" width="1" height="1" fill="#333333"/>
<rect x="44" y="68" width="2" height="1" fill="#333333"/>
<rect x="58" y="68" width="4" height="1" fill="#333333"/>
<rect x="64" y="68" width="2" height="1" fill="#333333"/>
<rect x="75" y="68" width="3" height="1" fill="#333333"/>
<rect x="84" y="68" width="5" height="1" fill="#333333"/>
<rect x="95" y="68" width="1" height="1" fill="#333333"/>
<rect x="46" y="69" width="4" height="1" fill="#333333"/>
<rect x="58" y="69" width="6" height="1" fill="#333333"/>
<rect x="66" y="69" width="4" height="1" fill="#333333"/>
<rect x="76" y="69" width="3" height="1" fill="#333333"/>
<rect x="88" y="69" width="6" height="1" fill="#333333"/>
<rect x="46" y="70" width="4" height="1" fill="#333333"/>
<rect x="58" y="70" width="6" height="1" fill="#333333"/>
<rect x="66" y="70" width="4" height="1" fill="#333333"/>
<rect x="76" y="70" width="3" height="1" fill="#333333"/>
<rect x="88" y="70" width="6" height="1" fill="#333333"/>
<rect x="50" y="71" width="4" height="1" fill="#333333"/>
<rect x="60" y="71" width="1" height="1" fill="#333333"/>
<rect x="63" y="71" width="3" height="1" fill="#333333"/>
<rect x="72" y="71" width="4" height="1" fill="#333333"/>
<rect x="92" y="71" width="4" height="1" fill="#333333"/>
<rect x="50" y="72" width="4" height="1" fill="#333333"/>
<rect x="60" y="72" width="1" height="1" fill="#333333"/>
<rect x="63" y="72" width="3" height="1" fill="#333333"/>
<rect x="72" y="72" width="4" height="1" fill="#333333"/>
<rect x="92" y="72" width="4" height="1" fill="#333333"/>
<rect x="54" y="73" width="4" height="1" fill="#333333"/>
<rect x="60" y="73" width="2" height="1" fill="#333333"/>
<rect x="68" y="73" width="4" height="1" fill="#333333"/>
<rect x="96" y="73" width="4" height="1" fill="#333333"/>
<rect x="58" y="74" width="10" height="1" fill="#333333"/>
<rect x="100" y="74" width="4" height="1" fill="#333333"/>
<rect x="58" y="75" width="10" height="1" fill="#333333"/>
<rect x="100" y="75" width="4" height="1" fill="#333333"/>
</g>
<g id="eye-left">
<rect x="61" y="50" width="1" height="1" fill="#ffffff"/>
<rect x="61" y="51" width="1" height="1" fill="#ffffff"/>
<rect x="62" y="50" width="1" height="1" fill="#ffffff"/>
<rect x="62" y="51" width="1" height="1" fill="#ffffff"/>
</g>
<g id="pupil-left">
<rect x="61" y="50" width="2" height="1" fill="#333333"/>
<rect x="61" y="51" width="2" height="1" fill="#333333"/>
</g>
<g id="eye-right">
<rect x="69" y="50" width="1" height="1" fill="#ffffff"/>
<rect x="69" y="51" width="1" height="1" fill="#ffffff"/>
<rect x="68" y="50" width="1" height="1" fill="#ffffff"/>
<rect x="68" y="51" width="1" height="1" fill="#ffffff"/>
</g>
<g id="pupil-right">
<rect x="68" y="50" width="2" height="1" fill="#333333"/>
<rect x="68" y="51" width="2" height="1" fill="#333333"/>
</g>
</svg>